<mxfile host="app.diagrams.net" modified="2023-10-12T16:55:25.506Z" agent="Mozilla/5.0 (Macintosh; Intel Mac OS X 10_15_7) AppleWebKit/605.1.15 (KHTML, like Gecko) Version/17.0 Safari/605.1.15" version="22.0.4" etag="jdARFo3XjuyXDqheYzo2" type="github">
  <diagram name="Sayfa -1" id="5-sMtsjDX2y6R79iRX4j">
    <mxGraphModel>
      <root>
        <mxCell id="0" />
        <mxCell id="1" parent="0" />
      </root>
    </mxGraphModel>
  </diagram>
</mxfile>
